<svg width="60" height="60" viewBox="0 0 60 60" fill="none" xmlns="http://www.w3.org/2000/svg">
<path fill-rule="evenodd" clip-rule="evenodd" d="M51.7425 44.6793C48.1519 43.485 44.2913 42.5925 40.2281 42.015C40.7813 38.7657 41.0756 35.3606 41.1694 31.875H56.1788C55.8431 36.6019 54.255 40.9762 51.7425 44.6793ZM36.4388 55.4232C37.6875 52.4063 38.7094 49.1457 39.495 45.7107C42.8662 46.2094 46.0987 46.9463 49.1606 47.9138C45.7781 51.5194 41.3869 54.1725 36.4388 55.4232ZM31.8206 56.1581C31.2169 56.2012 30.615 56.25 30 56.25C29.385 56.25 28.785 56.2012 28.1794 56.1581C26.5838 52.8356 25.2919 49.1382 24.3356 45.2138C26.1994 45.0507 28.0875 44.955 30 44.955C31.9125 44.955 33.8006 45.0507 35.6663 45.2138C34.7081 49.1382 33.4162 52.8356 31.8206 56.1581ZM10.8394 47.9138C13.9013 46.9463 17.1338 46.2094 20.505 45.7107C21.2906 49.1457 22.3125 52.4063 23.5612 55.4232C18.6131 54.1725 14.2238 51.5194 10.8394 47.9138ZM8.25751 44.6793C5.74501 40.9762 4.15686 36.6019 3.82124 31.875H18.8306C18.9244 35.3606 19.2187 38.7657 19.7719 42.015C15.7087 42.5925 11.8481 43.485 8.25751 44.6793ZM8.25751 15.3207C11.8481 16.515 15.7087 17.4093 19.7719 17.985C19.2187 21.2343 18.9244 24.6394 18.8306 28.125H3.82124C4.15686 23.3981 5.74501 19.0238 8.25751 15.3207ZM23.5612 4.57684C22.3125 7.59371 21.2906 10.8543 20.505 14.2893C17.1338 13.7924 13.9013 13.0537 10.8394 12.0862C14.2238 8.48059 18.6131 5.82746 23.5612 4.57684ZM28.1794 3.8419C28.785 3.80065 29.385 3.75 30 3.75C30.615 3.75 31.2169 3.80065 31.8206 3.8419C33.4162 7.1644 34.7081 10.8637 35.6663 14.7862C33.8006 14.9493 31.9125 15.045 30 15.045C28.0875 15.045 26.1994 14.9493 24.3356 14.7862C25.2919 10.8637 26.5838 7.1644 28.1794 3.8419ZM37.4137 31.875C37.3125 35.1769 37.0125 38.4244 36.4481 41.5425C34.3369 41.3588 32.19 41.25 30 41.25C27.81 41.25 25.6631 41.3588 23.5537 41.5425C22.9875 38.4244 22.6875 35.1769 22.5881 31.875H37.4137ZM22.5881 28.125C22.6875 24.8231 22.9875 21.5756 23.5537 18.4575C25.6631 18.6412 27.81 18.75 30 18.75C32.19 18.75 34.3369 18.6412 36.4463 18.4575C37.0125 21.5756 37.3125 24.8231 37.4137 28.125H22.5881ZM49.1606 12.0862C46.0987 13.0537 42.8662 13.7924 39.495 14.2893C38.7094 10.8543 37.6875 7.59371 36.4388 4.57684C41.3869 5.82746 45.7781 8.48059 49.1606 12.0862ZM51.7425 15.3207C54.255 19.0238 55.8431 23.3981 56.1788 28.125H41.1694C41.0756 24.6394 40.7813 21.2343 40.2281 17.985C44.2913 17.4093 48.1519 16.515 51.7425 15.3207ZM30 0C13.4325 0 0 13.4306 0 30C0 46.5694 13.4325 60 30 60C46.5675 60 60 46.5694 60 30C60 13.4306 46.5675 0 30 0Z" fill="url(#paint0_linear_448_9)"/>
<defs>
<linearGradient id="paint0_linear_448_9" x1="9.5" y1="8.5" x2="51.5" y2="53.5" gradientUnits="userSpaceOnUse">
<stop offset="0.24" stop-color="#2D97C7"/>
<stop offset="1" stop-color="#164A61"/>
</linearGradient>
</defs>
</svg>
