<svg width="56" height="56" viewBox="0 0 56 56" fill="none" xmlns="http://www.w3.org/2000/svg">
<path fill-rule="evenodd" clip-rule="evenodd" d="M7.31056 19.1298L16.222 15.9846C14.3821 18.4617 12.8014 21.1221 11.5054 23.924L7.31056 19.1298ZM1.11861 19.6462L9.37474 29.0818L8.17886 32.0715C7.80746 33 8.02514 34.0605 8.73229 34.7677L9.51634 35.5518C5.25862 40.3528 2.90681 45.374 0.628365 52.2095C0.328912 53.1077 0.562715 54.0982 1.23229 54.7677C1.90189 55.4372 2.89229 55.6712 3.79064 55.3717C10.626 53.0932 15.6473 50.7415 20.4483 46.4837L21.2323 47.2677C21.9395 47.975 23 48.1925 23.9286 47.8212L26.9183 46.6252L36.3538 54.8815C36.9778 55.4275 37.8318 55.6285 38.6338 55.4183C39.4361 55.208 40.0816 54.614 40.3576 53.832L47.8228 32.6805C52.7443 26.857 55.5001 19.437 55.5001 11.702V3C55.5001 1.6193 54.3808 0.5 53.0001 0.5H44.2981C36.5631 0.5 29.1431 3.25562 23.3196 8.17725L2.16801 15.6425C1.38616 15.9185 0.791965 16.5641 0.581765 17.3661C0.371538 18.1682 0.57264 19.0223 1.11861 19.6462ZM7.21324 48.7867C8.78199 44.998 10.5426 41.9822 13.059 39.0945L16.9056 42.941C14.0179 45.4575 11.0021 47.218 7.21324 48.7867ZM23.6021 42.5665L22.2678 41.2323L14.7678 33.7323L13.4335 32.398L15.2082 27.961C16.8367 23.89 19.1235 20.1142 21.977 16.785L23.4186 15.1032C28.6431 9.00797 36.2701 5.5 44.2981 5.5H50.5001V11.702C50.5001 19.7299 46.9921 27.357 40.8968 32.5815L39.2151 34.023C35.8858 36.8765 32.1101 39.1632 28.0391 40.7917L23.6021 42.5665ZM36.8703 48.6895L32.0761 44.4948C34.8781 43.1988 37.5383 41.618 40.0156 39.778L36.8703 48.6895ZM35.5001 18C35.5001 16.6193 36.6193 15.5 38.0001 15.5C39.3808 15.5 40.5001 16.6193 40.5001 18C40.5001 19.3807 39.3808 20.5 38.0001 20.5C36.6193 20.5 35.5001 19.3807 35.5001 18ZM38.0001 10.5C33.8578 10.5 30.5001 13.8579 30.5001 18C30.5001 22.1421 33.8578 25.5 38.0001 25.5C42.1423 25.5 45.5001 22.1421 45.5001 18C45.5001 13.8579 42.1423 10.5 38.0001 10.5Z" fill="url(#paint0_linear_451_5)"/>
<defs>
<linearGradient id="paint0_linear_451_5" x1="11" y1="5.5" x2="41.5019" y2="55.5001" gradientUnits="userSpaceOnUse">
<stop stop-color="#2D97C7"/>
<stop offset="1" stop-color="#164A61"/>
</linearGradient>
</defs>
</svg>
