<svg width="214" height="214" viewBox="0 0 214 214" fill="none" xmlns="http://www.w3.org/2000/svg">
<g clip-path="url(#clip0_446_3)">
<g clip-path="url(#clip1_446_3)">
<g clip-path="url(#clip2_446_3)">
<path d="M107.003 209.692C163.717 209.692 209.693 163.716 209.693 107.002C209.693 50.2876 163.717 4.31152 107.003 4.31152C50.2886 4.31152 4.3125 50.2876 4.3125 107.002C4.3125 163.716 50.2886 209.692 107.003 209.692Z" fill="url(#paint0_radial_446_3)"/>
<g clip-path="url(#clip3_446_3)">
<g clip-path="url(#clip4_446_3)">
<g clip-path="url(#clip5_446_3)">
<g clip-path="url(#clip6_446_3)">
<g clip-path="url(#clip7_446_3)">
<g clip-path="url(#clip8_446_3)">
<g clip-path="url(#clip9_446_3)">
<path d="M77.1095 90.847V168.37C74.1926 167.996 68.5582 167.809 60.2064 167.809H52.9141V46.0087C56.8033 46.258 61.0914 46.3827 65.7784 46.3827C70.4654 46.3827 73.7812 46.1334 75.7259 45.6348L106.428 97.7654L135.897 45.6348C137.841 46.1334 141.556 46.3827 147.041 46.3827C152.526 46.3827 157.213 46.258 161.102 46.0087V167.809H153.81C145.458 167.809 139.823 167.996 136.906 168.37V86.5464L107.064 139.949L77.1095 90.847Z" fill="white"/>
</g>
</g>
</g>
</g>
</g>
</g>
</g>
</g>
</g>
</g>
<defs>
<radialGradient id="paint0_radial_446_3" cx="0" cy="0" r="1" gradientUnits="userSpaceOnUse" gradientTransform="translate(41 27) rotate(49.427) scale(219.859)">
<stop stop-color="#38BDF8"/>
<stop offset="0.664154" stop-color="#2788B3"/>
</radialGradient>
<clipPath id="clip0_446_3">
<rect width="214" height="214" fill="white"/>
</clipPath>
<clipPath id="clip1_446_3">
<rect width="213.939" height="213.939" fill="white" transform="translate(0.0332031 0.0332031)"/>
</clipPath>
<clipPath id="clip2_446_3">
<rect width="213.939" height="213.939" fill="white" transform="translate(0.0332031 0.0332031)"/>
</clipPath>
<clipPath id="clip3_446_3">
<rect width="108.215" height="122.735" fill="white" transform="translate(52.8945 45.6348)"/>
</clipPath>
<clipPath id="clip4_446_3">
<rect width="108.215" height="122.735" fill="white" transform="translate(52.8945 45.6348)"/>
</clipPath>
<clipPath id="clip5_446_3">
<rect width="108.215" height="122.735" fill="white" transform="translate(52.8945 45.6348)"/>
</clipPath>
<clipPath id="clip6_446_3">
<rect width="108.215" height="122.735" fill="white" transform="translate(52.8945 45.6348)"/>
</clipPath>
<clipPath id="clip7_446_3">
<rect width="108.215" height="122.735" fill="white" transform="translate(52.8945 45.6348)"/>
</clipPath>
<clipPath id="clip8_446_3">
<rect width="108.215" height="122.735" fill="white" transform="translate(52.8945 45.6348)"/>
</clipPath>
<clipPath id="clip9_446_3">
<rect width="108.215" height="122.735" fill="white" transform="translate(52.8945 45.6348)"/>
</clipPath>
</defs>
</svg>
